<svg xmlns="http://www.w3.org/2000/svg" width="512" height="512"><path d="m381 3 2.48.586C426.99 14.122 463.793 41.544 488 79c16.375 27.044 24.465 56.888 24.375 88.438l-.004 2.388C512.255 197.86 505.847 224.463 492 249l-1.05 1.899C474.91 279.715 450.38 303.079 421 318l-1.865.96c-39.66 20.178-86.575 22.558-128.686 8.868-19.81-6.7-37.136-16.819-53.449-29.828l-2.95-2.352L232 294c-4.196 1.638-6.987 4.733-10.078 7.883l-1.732 1.74c-1.818 1.83-3.629 3.666-5.44 5.502a7039.639 7039.639 0 0 1-3.703 3.73A4078.32 4078.32 0 0 0 202 322l1.059 2.047 1.379 2.703 1.37 2.672c2.722 5.888 2.908 11.61 1.255 17.89-4.23 11.199-16.817 20.603-25.16 28.963l-4.217 4.236c-4.58 4.6-9.164 9.195-13.749 13.79l-4.755 4.767c-7.44 7.46-14.884 14.918-22.33 22.373a20466.771 20466.771 0 0 0-25.704 25.78 13972.59 13972.59 0 0 1-19.926 19.975 5837.383 5837.383 0 0 0-11.877 11.913 3509.217 3509.217 0 0 1-11.17 11.187 1107.68 1107.68 0 0 0-4.081 4.1c-9.792 9.886-17.64 17.632-32.219 17.916-9.788.011-16.956-2.586-24.117-9.312-5.968-6.79-7.95-13.637-8.195-22.5l-.184-3.969c1.025-13.5 12.056-22.814 21.037-31.691a2978.425 2978.425 0 0 1 16.42-16.416c4.2-4.178 8.386-8.372 12.573-12.563 7.03-7.03 14.07-14.05 21.118-21.06 8.142-8.1 16.265-16.216 24.38-24.343 7.82-7.831 15.651-15.652 23.488-23.466 3.33-3.32 6.655-6.644 9.978-9.971 3.913-3.917 7.835-7.823 11.765-11.721 1.439-1.43 2.874-2.864 4.305-4.301 1.959-1.965 3.93-3.917 5.903-5.866l1.697-1.72c5.716-5.593 12.108-9.033 20.144-9.663 6.862.45 11.94 2.726 17.813 6.25l28-28c-1.914-4.816-1.914-4.816-5-8.375-29.428-32.664-38.882-77.972-37-120.625.509-6.765 1.578-13.371 3-20l.504-2.378c2.743-12.48 7.078-24.069 12.496-35.622l1.015-2.179c6.84-14.416 15.94-28.293 27.506-39.358 1.641-1.56 1.641-1.56 3.417-3.963 2.992-3.627 6.449-6.504 10.062-9.5l2.93-2.473C257.917 20.183 281.7 9.465 308 3l2.098-.543C331.74-2.96 359.366-2.322 381 3ZM244 53l-2.816 2.406C234.712 61.094 229.227 67.16 224 74l-2.02 2.578c-24.422 32.178-34.392 73.198-29.21 113.151 6.37 40.67 28.848 77.689 62.048 102.056C273.206 304.79 293.948 313.509 316 318l3.113.68c18.749 3.408 39.342 2.527 57.887-1.68l2.253-.504c31.978-7.416 61.88-26.18 82.747-51.496l1.298-1.57c25.366-31.177 36.338-71.6 32.803-111.323C491.808 110.743 470.637 74.492 439 48 380.711 3.23 299.685 5.064 244 53Zm-80.895 272.7c-.977.99-1.95 1.986-2.917 2.988-.503.51-1.005 1.022-1.522 1.548A863.826 863.826 0 0 0 155 334c1.514 3.568 3.605 5.837 6.352 8.547l2.578 2.558 2.695 2.645 2.719 2.691c2.214 2.191 4.433 4.377 6.656 6.559 3.875-1.804 6.67-4.269 9.688-7.25l1.51-1.41c2.343-2.309 3.76-4.223 4.884-7.324-.171-6.299-5.27-10.541-9.457-14.829l-1.383-1.482c-2.314-2.35-4.14-3.671-7.281-4.717-5.014.02-7.284 2.38-10.856 5.711Zm-26.033 25.947-1.533 1.515c-1.705 1.688-3.403 3.383-5.101 5.078a5308.788 5308.788 0 0 0-13.58 13.503c-2.067 2.06-4.134 4.119-6.202 6.177-6.467 6.44-12.931 12.885-19.39 19.336a9600.8 9600.8 0 0 1-22.4 22.299 6927.948 6927.948 0 0 0-17.305 17.238c-3.44 3.438-6.884 6.87-10.34 10.291a1760.24 1760.24 0 0 0-9.724 9.704 559.099 559.099 0 0 1-3.572 3.545C19.007 468.739 19.007 468.739 15 480c.434 5.913 2.572 9.949 7 14 4.21 2.274 8.292 3.47 13.063 2.625 9.474-3.312 16.74-13.29 23.677-20.252l3.491-3.49c3.138-3.138 6.273-6.279 9.408-9.42 3.284-3.29 6.57-6.578 9.857-9.866 6.214-6.217 12.425-12.436 18.635-18.656a68722.18 68722.18 0 0 1 21.229-21.25C135.91 399.13 150.456 384.565 165 370c-1.649-3.495-3.54-5.798-6.281-8.547l-2.551-2.558-2.668-2.645-2.668-2.691-2.55-2.543-2.343-2.335c-4.004-3.47-5.68-.2-8.867 2.966Z"/><path d="M247 82c2.773 1.721 3 3 3.848 6.195.19 4.758-1.444 6.954-4.223 10.555-18.535 25.865-25.468 58.152-20.5 89.5C231.721 219.164 248.85 246.225 274 265c27.28 18.7 59.792 26.408 92.455 20.474 17.702-3.614 34.844-10.714 49.295-21.661 3.254-2.414 3.938-2.803 8.188-2.938 4.536 1.666 4.536 1.666 6.062 4.125 1.018 3.346 1.373 5.169-.074 8.395-2.406 3.254-5.254 5.26-8.613 7.418l-2.009 1.305C387.698 302.25 349.7 309.136 313 301c-35.045-8.705-65.991-30.013-85-61-18.553-31.138-24.803-67.48-17-103l.456-2.097c3.792-16.548 12.706-43.52 27.638-53.27 2.908-.965 4.993-.439 7.906.367ZM427.664 59.316c22.924 18.151 39.575 42.26 47.711 70.434l.723 2.504c3.202 11.76 4.268 23.332 4.214 35.496l-.014 3.995C479.953 200.47 470.062 230.999 451 253c-3.057 1.528-5.63 1.232-9 1-3.143-1.489-3.81-2.478-5-5.75 0-4.304 1.673-6.797 4-10.25 18.87-28.609 27.182-60.612 20.375-94.75-6.775-30.527-24.71-58.541-51.271-75.458-27.507-16.882-60.719-24.077-92.592-16.76-16.508 4.553-31.015 10.91-44.742 21.183-2.753 1.774-4.535 2.505-7.77 2.785-3.813-1.064-4.75-1.625-7-5-.438-3.375-.438-3.375 0-7 40.509-46.77 125.057-37.689 169.664-3.684Z"/><path d="M385.027 213.207c6.642 5.468 6.642 5.468 7.91 10.543-1.192 4.135-2.372 5.823-5.937 8.25-6.45.645-10.102-3.148-15.02-6.926-11.523-8.02-24.574-9.447-38.207-7.648-9.037 1.943-17.313 6.264-24.148 12.512C307 232 307 232 303.937 232.625c-4.03-.857-5.506-2.336-7.937-5.625-.75-3.134-.644-4.875.969-7.691 7.881-10.241 22.548-16.953 35.094-19.024 19.588-1.901 36.733 1.09 52.964 12.922ZM292 120c2.32 1.807 4.023 3.345 5.938 5.5l1.494 1.59A252.233 252.233 0 0 1 303 131c3.423-1.466 5.565-3.38 8.125-6.063 4.62-4.82 4.62-4.82 9.25-5.25 3.625.313 3.625.313 6.063 1.876 2.264 3.531 2.32 5.298 1.562 9.437-2.04 2.974-4.439 5.472-7 8l-2.438 2.5L317 143c1.466 3.423 3.38 5.565 6.063 8.125 4.829 4.628 4.829 4.628 5.187 8.75-.284 3.547-.573 4.794-3.25 7.125-4.112 1.241-6.126 1.437-10-.5-3.56-2.967-6.81-6.14-10-9.5-3.424 1.45-5.354 3.304-7.813 6.063-2.773 2.834-4.005 3.879-7.875 5.125-3.692-.21-5.434-.903-8.312-3.188-1.509-3.018-1.5-4.623-1-8 2.059-2.94 4.474-5.458 7-8l2.438-2.5L291 145c-1.384-3.156-2.987-5.158-5.5-7.5-2.5-2.331-4.26-4.285-5.5-7.5.13-3.68.221-6.072 2.625-8.938 3.384-1.513 5.689-1.468 9.375-1.062ZM372 120c2.32 1.807 4.023 3.345 5.938 5.5l1.494 1.59A252.233 252.233 0 0 1 383 131c3.423-1.466 5.565-3.38 8.125-6.063 4.62-4.82 4.62-4.82 9.25-5.25 3.625.313 3.625.313 6.063 1.876 2.264 3.531 2.32 5.298 1.562 9.437-2.04 2.974-4.439 5.472-7 8l-2.438 2.5L397 143c1.51 3.674 3.688 5.688 6.625 8.313 4.257 4.18 4.257 4.18 5.25 8.437-1.122 4.167-2.304 5.819-5.875 8.25-4.524-.037-6.546-.632-10.09-3.504a134.218 134.218 0 0 1-2.848-3.059l-1.494-1.576A288.516 288.516 0 0 1 385 156c-1.065.893-2.127 1.79-3.188 2.688l-1.949 1.648c-2.054 1.77-2.054 1.77-4.363 4.476-3.195 2.796-5.297 3.112-9.5 3.188-2.648-.787-3.629-1.523-5.313-3.688-1.027-3.457-.524-5.811.313-9.312 1.825-2.252 3.446-4.027 5.563-5.938l1.576-1.494A288.516 288.516 0 0 1 372 144l-1.102-1.285a596.887 596.887 0 0 1-3.16-3.719 77.248 77.248 0 0 0-3.508-3.773c-3.076-3.178-4.202-4.395-4.355-8.973C361 123 361 123 362.625 121.062c3.384-1.513 5.689-1.468 9.375-1.062Z"/></svg>